Simulation
nRows=42
nColumns=15
endheader
time  TH_x TH_y TH_z SC_y  SC_z  SC_x  AC_y  AC_z  AC_x  GH_y  GH_z  GH_yy  EL_x  PS_y
0.0  0.000000  0.000000  0.000000  -37.42572883906246  0.5003465037655742  5.134215449145141  46.3023481971401  1.0549264948841046  -4.2383277937408455  56.973770309398255  4.724205165206174  -41.386417440090476  21.578809244796897  120.000000
0.03200000000000003  0.000000  0.000000  0.000000  -37.39097789324668  0.7765272582940261  3.9585679297654237  45.95803173034527  2.167694842646534  -3.490831891322095  51.594932832831724  4.620441067692806  -36.12380751242536  21.272066400382894  120.000000
0.06400000000000006  0.000000  0.000000  0.000000  -37.36560583803995  0.9425462625847542  2.8228689760157355  45.6366141348416  3.133376856426933  -2.780480960488798  46.98453516415977  4.534764337708568  -31.668009632045333  20.992894341253585  120.000000
0.09600000000000009  0.000000  0.000000  0.000000  -37.34791443002249  1.0288950100048198  1.7483089114007508  45.367157342218505  3.9551310096128787  -2.109453513441567  43.36816633901171  4.4831760658810795  -28.24327872692018  20.758015878619783  120.000000
0.1280000000000001  0.000000  0.000000  0.000000  -37.34507300309172  1.0541405983978132  0.7303697156180912  45.16966448064714  4.656408979871625  -1.4659491929536697  40.860303416104095  4.48141794747528  -25.96261580809586  20.577289261631968  120.000000
0.16000000000000014  0.000000  0.000000  0.000000  -37.358335842245125  1.0330465009950789  -0.2331174682690892  45.05624175610243  5.260193727141204  -0.836583789353576  39.43095705349951  4.544155416814149  -24.788035171342667  20.4555814627183  120.000000
0.19200000000000017  0.000000  0.000000  0.000000  -37.385441397081166  0.9746312804047519  -1.1428779878051205  45.034146384980374  5.788398996790813  -0.20888795292524803  38.915200304645374  4.687963499751552  -24.540331296345325  20.39526681048562  120.000000
0.2240000000000002  0.000000  0.000000  0.000000  -37.41877672866693  0.8848096169331537  -1.998997186771936  45.10711053837521  6.260638099854767  0.42762909229534746  39.053084323126654  4.927362610147357  -24.94143384099155  20.396120321011704  120.000000
0.2560000000000002  0.000000  0.000000  0.000000  -37.449087725985784  0.7678259132134801  -2.8017168731845516  45.27589117603329  6.694898074034902  1.0789494333109946  39.56031451140302  5.274733522313198  -25.687229799230135  20.456804859619787  120.000000
0.28800000000000026  0.000000  0.000000  0.000000  -37.46606079170459  0.6287649614798904  -3.5510700056594233  45.53641279267995  7.10751237215516  1.7466370508541489  40.21533440169488  5.73730470419148  -26.54017644952916  20.573587745918108  120.000000
0.3200000000000003  0.000000  0.000000  0.000000  -37.46126215415107  0.47444234865296403  -4.247001369072196  45.87863112219778  7.512735677656605  2.4280741093720417  40.915553770507664  6.319382653537898  -27.38798737367617  20.740488461567303  120.000000
0.3520000000000003  0.000000  0.000000  0.000000  -37.429395556898726  0.31513127501076893  -4.88913587854716  46.28499570293803  7.921590757618512  3.1184206154701197  41.688961518278994  7.023035327420808  -28.260418718930705  20.947857646902232  120.000000
0.38400000000000034  0.000000  0.000000  0.000000  -37.37046649789239  0.1643440661106244  -5.478206896196784  46.73117934013271  8.342195376491716  3.8097514070218423  42.6438352454334  7.8512515599615575  -29.28047867663956  21.181905506357825  120.000000
0.41600000000000037  0.000000  0.000000  0.000000  -37.289724061109254  0.038276180543809366  -6.016625775042624  47.18801091367777  8.779142612358049  4.4920691270525905  43.89226221048577  8.807842720333081  -30.587177216242452  21.42445320821432  120.000000
0.4480000000000004  0.000000  0.000000  0.000000  -37.196328628773806  -0.04578905442895576  -6.5084662577079815  47.62594704047204  9.23334769211903  5.154747355833164  45.508028533197795  9.898202453842135  -32.289980163284675  21.65519214378656  120.000000
0.4800000000000004  0.000000  0.000000  0.000000  -37.100141540431835  -0.07246007100650043  -6.957817324721756  48.019546759676075  9.70060630459088  5.791146692314954  47.48632214086918  11.127524891575185  -34.41975827728873  21.855329127954754  120.000000
0.5120000000000005  0.000000  0.000000  0.000000  -37.00853903886115  -0.031077792095319808  -7.367443112094931  48.35310106069969  10.173041822900734  6.399642288082985  49.75383552891145  12.499456747762842  -36.934340165844965  22.01213937915696  120.000000
0.5440000000000005  0.000000  0.000000  0.000000  -36.923503420494264  0.08215445859774782  -7.737204917019  48.62429539034914  10.640312033405767  6.984392353456844  52.175940375331486  14.012907831088103  -39.71727235316183  22.12263449167313  120.000000
0.5760000000000005  0.000000  0.000000  0.000000  -36.84286805655582  0.2641848576212867  -8.062478261863232  48.844264725938764  11.092488449946979  7.554278987627569  54.59359899455382  15.658472960621946  -42.61374392078061  22.19498227619529  120.000000
0.6080000000000005  0.000000  0.000000  0.000000  -36.76299872571401  0.5075536644967706  -8.334289886098997  49.034595453763124  11.522096514213517  8.119448475000596  56.859180626773785  17.41814246179456  -45.466254770722735  22.245605454495845  120.000000
0.6400000000000006  0.000000  0.000000  0.000000  -36.682482189349095  0.8036971808753509  -8.539678775467568  49.22276105798864  11.925227702979047  8.689004566984984  58.86097263625897  19.265982556537395  -48.14269917959191  22.293839701861774  120.000000
0.6720000000000006  0.000000  0.000000  0.000000  -36.60530163134019  1.1457755036983008  -8.663331727196764  49.43618233509964  12.302088446390371  9.267027753354862  60.542872196524485  21.174941422125954  -50.562890008457344  22.354443985228976  120.000000
0.7040000000000006  0.000000  0.000000  0.000000  -36.54281449627742  1.529986768565934  -8.688345904224228  49.69669733935908  12.655073426298701  9.853673197931249  61.89835758119945  23.121268383389058  -52.69637391555692  22.43185196965993  120.000000
0.7360000000000007  0.000000  0.000000  0.000000  -36.512472642207285  1.9560350338299148  -8.598205012492114  50.01579001751804  12.986636177913951  10.444770158728076  62.96628599094686  25.089265491496874  -54.56465290961496  22.516682189020386  120.000000
0.7680000000000007  0.000000  0.000000  0.000000  -36.53373162034587  2.4266563969065227  -8.378096411473674  50.39493663822452  13.296745275427435  11.033924034393577  63.81272052314409  27.071288008776275  -56.22329315068121  22.587746391585295  120.000000
0.8000000000000007  0.000000  0.000000  0.000000  -36.62272890022413  2.9464840449112377  -8.015961044808726  50.82864455902214  13.582450288853634  11.612755618998277  64.51339412447533  29.06606518654917  -57.74421422349737  22.618358447303756  120.000000
0.8320000000000007  0.000000  0.000000  0.000000  -36.78944424610894  3.519299970360127  -7.502211161820847  51.30748601459037  13.838875259244821  12.172216372467906  65.13703735151891  31.075633399890627  -59.19668496758471  22.584157817302245  120.000000
0.8640000000000008  0.000000  0.000000  0.000000  -37.0354004641269  4.145127234496808  -6.829469975306408  51.81981539703522  14.058964409669532  12.705165386887893  65.732322207973  33.10050778861662  -60.630287486671214  22.470676779444304  120.000000
0.8960000000000008  0.000000  0.000000  0.000000  -37.354955167274525  4.820619743332535  -5.992265770609454  52.35425454060287  14.235537181490486  13.206783526978153  66.32461103721165  35.137332952223545  -62.068450753189005  22.27828131202146  120.000000
0.9280000000000008  0.000000  0.000000  0.000000  -37.738151688935005  5.54092658890401  -4.98755927944689  52.90099596746597  14.36240468404637  13.673607150506818  66.91519345805793  37.17866884421105  -63.50697162614632  22.021702623931763  120.000000
0.9600000000000009  0.000000  0.000000  0.000000  -38.1745680866307  6.299621841566328  -3.814521342393477  53.45239026606595  14.434899739724624  14.104319222973784  67.48957810348413  39.21322750209049  -64.92092961226201  21.725345035436963  120.000000
0.9920000000000009  0.000000  0.000000  0.000000  -38.655466431590725  7.088696290063437  -2.4754064972840943  54.001407400048485  14.449192337398104  14.499979621325403  68.02783683134652  41.22740829475629  -66.27726982748283  21.41569686341797  120.000000
1.024000000000001  0.000000  0.000000  0.000000  -39.175466228682275  7.899067883776196  -0.9759241653269759  54.54191260784046  14.402649888860612  14.863487559863389  68.50863156117882  43.20664644754665  -67.54069832943772  21.113533377017664  120.000000
1.056000000000001  0.000000  0.000000  0.000000  -39.73244135337196  8.722179633490681  0.6747173725792843  55.06771069792975  14.294592466649991  15.19853560561959  68.91596564837015  45.137058551251  -68.68430324588552  20.82950448907429  120.000000
1.088000000000001  0.000000  0.000000  0.000000  -40.326509141907536  9.549264169171835  2.4645903501177187  55.573674391718576  14.126400395003914  15.509562300548128  69.23916489835618  47.00657829589288  -69.69049117344008  20.564216135581297  120.000000
1.120000000000001  0.000000  0.000000  0.000000  -40.957590440427246  10.371046716049154  4.379491858533432  56.054317111853344  13.90140846821149  15.801059037389633  69.47440738836828  48.8043451879128  -70.55434586941243  20.31052746713167  120.000000
1.152000000000001  0.000000  0.000000  0.000000  -41.62395414024514  11.177913480432856  6.402999030139701  56.50495385306577  13.624459567795052  16.07682119540506  69.6224627220602  50.5204502169931  -71.28141186925593  20.05857179214189  120.000000
1.184000000000001  0.000000  0.000000  0.000000  -42.321154652007834  11.959852279342117  8.516168107381672  56.92110563093274  13.30048163804588  16.338897420118823  69.68773275639725  52.14505539093401  -71.88629807422245  19.800938921338584  120.000000
1.216000000000001  0.000000  0.000000  0.000000  -43.041860311632085  12.706932287638239  10.697403573618162  57.2987375137647  12.933441741845293  16.587556749742408  69.67627717139031  53.66832455730146  -72.39082089157775  19.536126187362594  120.000000
1.248000000000001  0.000000  0.000000  0.000000  -43.77587319443089  13.409720980454058  12.92167354755004  57.63418763739446  12.52543579513362  16.820718772748  69.59451010072004  55.07995899863669  -72.81994257443122  19.269797090963422  120.000000
1.2800000000000011  0.000000  0.000000  0.000000  -44.510664693112126  14.060158639374128  15.160975551079012  57.92534347443013  12.077042317675255  17.03429400354846  69.44946469190299  56.370374924327066  -73.20024496179163  19.013546659714603  120.000000
1.3120000000000012  0.000000  0.000000  0.000000  -45.23184025519076  14.652014266239082  17.38497740289642  58.17221347070199  11.587875316209807  17.222205948323904  69.24938176316378  57.53054016954585  -73.5545969245196  18.781527274172117  120.000000
